<?xml version="1.0" standalone="no"?>
<!DOCTYPE svg PUBLIC "-//W3C//DTD SVG 20010904//EN"
 "http://www.w3.org/TR/2001/REC-SVG-20010904/DTD/svg10.dtd">
<svg version="1.0" xmlns="http://www.w3.org/2000/svg"
 width="511.000000pt" height="510.000000pt" viewBox="0 0 511.000000 510.000000"
 preserveAspectRatio="xMidYMid meet">

  <g fill="#0078c2" transform="translate(0.000000,510.000000) scale(0.100000,-0.100000)" stroke="none">
    <path d="M2457 5079 c-63 -37 -62 -143 7 -447 28 -125 52 -270 45 -276 -2 -2
-44 -6 -94 -10 -367 -27 -705 -163 -1003 -404 -56 -45 -107 -80 -113 -77 -5 4
-74 104 -153 223 -158 237 -173 257 -230 296 -63 43 -90 36 -163 -38 -68 -70
-75 -93 -48 -145 19 -37 96 -106 181 -163 247 -164 302 -201 328 -222 l30 -25
-50 -58 c-27 -32 -54 -64 -61 -71 -22 -23 -140 -205 -176 -272 -109 -202 -186
-467 -205 -705 l-7 -90 -50 3 c-27 2 -133 21 -235 44 -183 39 -334 57 -384 44
-53 -13 -66 -41 -66 -142 0 -92 0 -92 32 -119 32 -27 35 -27 128 -22 54 3 174
22 280 45 234 51 289 58 294 40 2 -7 9 -67 15 -133 32 -351 187 -712 424 -988
32 -37 55 -72 52 -78 -4 -6 -104 -75 -224 -154 -233 -156 -258 -175 -296 -231
-41 -61 -35 -89 39 -161 69 -67 93 -75 144 -49 46 24 118 109 198 233 93 145
157 239 189 277 l23 29 54 -48 c272 -245 688 -420 1050 -442 81 -5 98 -9 98
-22 0 -27 -26 -167 -64 -343 -46 -211 -48 -302 -10 -347 25 -30 28 -31 114
-31 80 0 92 3 117 24 28 24 28 26 27 133 0 64 -7 136 -17 178 -37 157 -66 303
-69 350 l-3 50 95 7 c374 28 760 190 1043 439 l60 53 28 -35 c16 -19 77 -110
137 -202 110 -174 193 -277 243 -302 53 -28 77 -20 146 48 55 55 63 69 63 101
0 54 -75 129 -235 233 -180 118 -246 164 -284 195 l-33 28 60 67 c237 268 406
673 430 1028 l7 100 45 -2 c44 -2 118 -16 355 -67 183 -40 309 -32 329 19 3 9
6 56 6 104 0 81 -2 89 -26 112 -24 22 -33 24 -127 23 -80 -1 -142 -10 -287
-42 -102 -23 -210 -42 -240 -44 l-55 -3 -7 100 c-24 366 -203 783 -451 1052
-22 24 -38 45 -36 46 2 2 24 19 49 39 25 19 117 81 204 137 237 152 296 208
296 281 0 28 -11 44 -63 97 -71 71 -96 78 -153 42 -48 -30 -99 -91 -184 -222
-113 -175 -204 -302 -217 -302 -6 0 -24 11 -40 25 -304 266 -639 413 -1033
453 l-125 13 3 48 c4 47 12 91 66 341 16 74 26 152 26 203 0 79 -2 85 -29 113
-28 27 -34 29 -113 29 -46 0 -91 -5 -101 -11z m433 -1042 c298 -71 540 -207
752 -420 219 -220 367 -503 424 -812 24 -129 25 -391 1 -515 -100 -529 -433
-948 -917 -1155 -198 -85 -369 -117 -615 -116 -151 0 -185 3 -300 29 -403 92
-736 321 -960 662 -167 254 -248 529 -247 840 1 411 152 775 445 1072 153 154
314 260 519 342 219 87 332 106 593 102 171 -3 215 -7 305 -29z"/>
    <path d="M2455 3909 c-530 -36 -1000 -389 -1190 -894 -64 -170 -94 -404 -76
-583 20 -197 60 -341 137 -494 170 -339 461 -588 822 -702 352 -111 758 -67
1078 116 361 207 601 543 680 955 23 120 23 357 0 478 -37 192 -125 400 -234
555 -218 307 -601 533 -957 565 -38 3 -86 7 -105 9 -19 2 -89 0 -155 -5z m98
-359 c3 0 51 27 106 60 56 32 101 56 101 52 0 -4 -41 -66 -91 -137 l-91 -130
6 -95 c6 -100 17 -181 61 -425 48 -273 64 -379 76 -499 11 -118 9 -289 -4
-303 -4 -3 -20 5 -35 19 -41 39 -71 51 -127 51 -53 0 -94 -17 -132 -52 -12
-12 -24 -21 -27 -21 -2 0 -7 37 -11 83 -11 133 9 319 75 692 41 236 50 292 59
377 19 168 21 158 -75 298 -48 69 -89 131 -92 138 -2 7 41 -14 96 -48 55 -33
102 -60 105 -60z m-592 -1177 c1 -54 1 -101 0 -105 0 -5 6 -8 15 -8 15 0 16
11 12 90 -3 53 -2 90 4 90 17 0 46 -84 58 -168 13 -98 11 -102 -72 -147 -90
-49 -188 -35 -272 39 l-28 25 42 78 c73 135 142 201 213 203 l27 0 1 -97z
m1279 77 c48 -25 110 -101 156 -192 l35 -69 -28 -25 c-83 -74 -181 -89 -270
-40 -83 46 -86 50 -74 145 11 82 41 171 59 171 6 0 7 -37 4 -90 -4 -79 -3 -90
12 -90 14 0 16 14 16 105 l0 105 25 0 c14 0 44 -9 65 -20z m-1534 -331 c10
-16 82 -46 129 -53 53 -9 136 10 180 40 44 29 55 25 55 -24 0 -138 70 -354
153 -470 30 -42 144 -134 199 -162 15 -7 25 -17 22 -22 -8 -13 -203 -9 -266 6
-232 56 -417 242 -479 484 -28 112 -24 251 7 201z m1369 1 c11 -17 63 -40 115
-50 64 -12 142 2 192 35 21 14 41 25 44 25 12 0 -5 -183 -22 -240 -67 -223
-245 -397 -468 -455 -60 -16 -242 -20 -264 -7 -9 6 4 17 40 37 120 65 225 197
275 347 26 76 53 220 53 279 0 27 4 39 14 39 8 0 18 -5 21 -10z m-445 -68 c19
-9 45 -33 58 -52 21 -31 23 -44 20 -115 -3 -63 -10 -92 -33 -138 -29 -59 -93
-127 -120 -127 -22 0 -83 57 -110 104 -34 58 -57 152 -49 204 13 84 77 142
159 142 22 0 56 -8 75 -18z m-103 -554 c9 -21 19 -38 23 -38 17 0 39 39 45 83
6 38 10 45 21 37 7 -6 16 -25 19 -41 6 -27 9 -29 40 -23 20 3 35 1 40 -5 9
-16 -116 -73 -160 -73 -44 0 -169 57 -159 73 4 7 20 9 39 6 30 -5 34 -2 40 21
4 15 12 33 18 41 10 12 13 9 15 -15 1 -16 10 -46 19 -66z"/>
    <path d="M1806 2277 c-26 -19 -17 -51 17 -55 31 -4 47 20 30 46 -13 22 -26 24
-47 9z"/>
    <path d="M3260 2275 c-20 -25 -8 -50 25 -50 36 0 47 31 19 52 -23 17 -29 16
-44 -2z"/>
    <path d="M2585 1859 c-10 -30 18 -58 43 -43 9 6 17 22 17 35 0 34 -50 41 -60
8z"/>
  </g>
</svg>
