<?xml version="1.0" standalone="no"?>
<!DOCTYPE svg PUBLIC "-//W3C//DTD SVG 20010904//EN"
 "http://www.w3.org/TR/2001/REC-SVG-20010904/DTD/svg10.dtd">
<svg version="1.0" xmlns="http://www.w3.org/2000/svg"
 width="1280.000000pt" height="843.000000pt" viewBox="0 0 1280.000000 843.000000"
 preserveAspectRatio="xMidYMid meet">
<g transform="translate(0.000000,843.000000) scale(0.100000,-0.100000)"
 stroke="#6C1731" stroke-width="15">
<path d="M912 8423 c-12 -2 -29 -14 -37 -26 -48 -69 -66 -102 -64 -121 1 -11
-1 -28 -4 -36 -14 -32 -23 -129 -15 -144 13 -23 6 -72 -10 -68 -7 1 -23 -3
-35 -10 -12 -6 -39 -13 -60 -14 -46 -3 -70 -20 -61 -46 10 -34 -12 -46 -89
-46 -47 -1 -90 -8 -122 -20 l-50 -20 -5 -80 c-4 -61 -11 -86 -25 -102 -11 -12
-21 -38 -22 -58 -2 -44 -18 -139 -28 -167 -3 -11 -18 -43 -33 -71 l-26 -52 19
-58 c11 -33 28 -70 38 -83 11 -15 17 -40 17 -65 -2 -51 12 -124 29 -155 17
-30 77 -84 106 -94 29 -10 38 -32 25 -58 -7 -12 -8 -31 -2 -52 9 -35 9 -63 -3
-120 -5 -27 -3 -44 9 -62 9 -13 16 -34 16 -46 0 -34 51 -172 73 -196 12 -13
32 -23 48 -23 23 0 30 -6 39 -35 14 -42 35 -55 89 -55 42 0 61 -18 61 -58 0
-26 41 -52 84 -52 46 0 113 -37 124 -69 5 -15 30 -48 56 -74 43 -45 86 -128
86 -168 0 -9 9 -24 20 -34 11 -10 20 -24 20 -32 0 -23 69 -123 85 -123 8 0 23
-9 32 -20 10 -11 30 -20 47 -20 16 0 44 -9 62 -21 33 -20 33 -21 17 -45 -12
-20 -14 -30 -5 -49 11 -24 6 -55 -18 -107 -15 -32 -53 -61 -90 -68 -18 -4 -34
-23 -61 -74 -20 -38 -44 -73 -55 -78 -10 -6 -39 -30 -64 -54 -25 -24 -65 -50
-89 -59 -59 -21 -71 -32 -71 -69 0 -17 -7 -39 -14 -49 -7 -9 -11 -28 -9 -41 6
-28 -48 -108 -75 -113 -9 -1 -32 -5 -50 -7 -18 -3 -40 -10 -48 -17 -11 -9 -18
-9 -26 -1 -7 7 -21 12 -31 12 -11 0 -30 11 -42 24 -18 19 -30 24 -60 21 -39
-4 -75 -29 -75 -52 0 -11 -6 -11 -31 2 -46 24 -81 16 -91 -20 -8 -32 -84 -95
-114 -95 -51 0 -69 -48 -40 -107 8 -15 19 -39 25 -53 6 -14 20 -38 31 -55 41
-63 41 -60 14 -96 -45 -60 -59 -99 -45 -121 10 -16 9 -24 -4 -44 -9 -14 -15
-35 -14 -47 1 -12 -3 -35 -9 -50 -7 -16 -12 -34 -12 -42 0 -7 -7 -26 -15 -41
-23 -45 -19 -72 15 -92 16 -10 42 -36 58 -58 16 -21 45 -52 65 -67 21 -16 46
-45 56 -65 l19 -37 -29 -54 c-16 -30 -29 -60 -29 -67 0 -7 -9 -32 -21 -54 -18
-34 -26 -40 -54 -40 -32 0 -65 -24 -51 -37 3 -4 -3 -16 -14 -28 -12 -12 -23
-40 -27 -61 -7 -51 -25 -65 -62 -51 -22 8 -41 7 -84 -7 -31 -10 -61 -24 -68
-32 -15 -18 -5 -42 23 -53 28 -11 46 -32 81 -91 14 -25 35 -53 46 -62 11 -10
23 -30 27 -45 3 -15 15 -47 26 -71 15 -31 25 -42 43 -42 27 0 35 -17 35 -72 0
-38 6 -46 77 -114 43 -41 81 -74 85 -74 4 0 18 -11 32 -25 14 -14 34 -25 44
-25 11 0 27 -11 36 -25 21 -33 86 -65 130 -65 25 0 38 -6 46 -20 12 -22 91
-60 127 -60 14 0 38 -11 55 -25 16 -14 42 -25 56 -25 24 0 29 -5 39 -50 7 -29
9 -78 6 -118 -5 -58 -2 -76 15 -108 11 -22 24 -60 27 -87 4 -31 11 -47 20 -47
21 0 55 -73 55 -119 0 -34 14 -75 49 -150 4 -8 27 -19 51 -25 39 -10 45 -15
53 -46 5 -19 13 -39 18 -44 15 -16 10 -55 -8 -74 -58 -61 -93 -107 -93 -123 0
-10 -11 -20 -27 -24 -15 -3 -31 -12 -35 -18 -13 -21 -8 -151 7 -177 19 -33 19
-66 -1 -99 -15 -25 -15 -31 -2 -56 13 -25 13 -33 0 -66 -13 -35 -13 -43 2 -82
22 -57 20 -69 -10 -98 -21 -19 -24 -30 -19 -54 4 -16 9 -58 12 -92 4 -58 3
-63 -16 -63 -11 0 -25 -9 -31 -20 -16 -31 4 -58 48 -65 20 -4 51 -9 67 -12 17
-3 44 -7 60 -8 17 -1 39 -5 50 -9 11 -4 31 -12 45 -17 14 -5 84 -11 156 -13
105 -4 136 -2 153 10 28 20 44 51 50 99 5 33 12 43 40 57 19 9 39 22 44 27 15
15 74 14 84 -1 4 -7 13 -29 18 -48 15 -51 55 -54 98 -7 48 50 76 57 209 53
102 -3 119 -6 139 -25 15 -13 36 -21 60 -21 20 0 42 -7 49 -15 32 -38 125 -25
136 20 3 14 12 25 20 25 8 0 14 5 14 11 0 6 8 7 22 3 13 -5 48 -9 78 -10 30
-1 69 -5 86 -9 29 -6 33 -4 64 44 31 48 36 51 74 51 23 0 51 7 63 15 11 8 39
17 63 21 32 5 46 14 60 36 l17 29 17 -34 c27 -59 97 -87 126 -52 7 8 24 21 40
28 24 13 28 12 39 -4 15 -26 38 -24 79 7 37 28 37 37 14 128 -10 36 -9 41 14
58 13 11 24 26 24 34 0 18 37 18 70 -1 14 -8 35 -14 47 -15 13 0 30 -11 39
-26 23 -35 77 -31 82 6 4 27 28 49 53 50 9 0 29 14 44 32 21 23 30 28 33 17 3
-7 16 -24 31 -36 20 -16 26 -30 26 -58 0 -52 23 -66 68 -42 24 13 44 17 69 12
26 -5 38 -3 44 7 14 23 43 29 68 13 12 -8 44 -16 72 -17 48 -3 49 -2 52 27 4
35 26 55 62 55 14 0 31 5 37 11 14 14 53 -18 46 -38 -3 -7 -1 -19 5 -26 6 -6
15 -41 22 -77 16 -93 19 -100 46 -110 19 -7 24 -16 22 -37 -1 -16 6 -43 16
-62 18 -34 34 -37 87 -16 11 4 18 0 21 -13 5 -17 14 -20 64 -19 81 0 104 -9
104 -39 0 -28 14 -59 39 -85 30 -32 111 -89 126 -89 20 0 29 41 22 101 -6 48
-6 49 21 49 15 0 36 -7 46 -15 21 -16 64 -11 81 10 20 24 40 22 70 -6 40 -37
164 -89 213 -89 35 0 43 -4 61 -35 21 -37 63 -60 93 -52 10 3 23 -4 33 -19 8
-13 22 -24 30 -24 18 0 85 -39 85 -50 0 -4 16 -17 35 -29 20 -11 38 -29 41
-38 3 -10 9 -27 14 -38 5 -11 11 -27 13 -37 8 -23 106 -50 159 -43 94 13 108
16 124 32 9 10 34 18 54 18 23 1 67 16 111 39 57 30 79 37 105 32 113 -20 102
-22 114 23 14 51 33 63 76 45 38 -16 97 -18 123 -5 19 11 82 -6 103 -27 22
-22 53 -14 65 17 10 27 16 30 76 36 52 6 70 12 87 32 11 13 26 22 33 19 7 -3
31 -11 55 -18 26 -8 42 -18 42 -28 0 -41 69 -53 137 -25 19 8 46 15 59 15 44
0 103 24 115 47 17 31 31 35 138 38 l95 3 38 43 c21 23 38 50 38 60 0 10 4 21
10 24 5 3 10 19 10 34 0 29 14 46 53 66 12 6 23 18 25 27 3 15 -49 101 -69
114 -6 4 -3 11 8 19 14 10 23 37 32 94 15 93 8 111 -41 111 l-29 0 7 48 c9 53
8 64 -2 107 -12 55 -53 82 -81 54 -9 -9 -21 -2 -48 24 -31 31 -37 43 -41 91
-4 47 -1 58 16 73 12 11 32 16 50 15 24 -3 32 2 41 22 7 14 18 26 24 26 7 0
20 9 30 20 23 25 30 25 55 0 12 -12 33 -20 55 -20 26 0 45 -9 71 -32 19 -18
53 -38 75 -45 36 -11 43 -10 97 21 60 34 59 31 46 108 -7 39 27 121 69 167 22
23 23 23 179 18 133 -5 160 -3 173 9 8 9 15 19 15 24 0 5 12 22 26 39 14 17
24 37 21 45 -3 7 -1 18 5 24 15 15 18 122 4 144 -9 15 -1 27 48 73 46 44 62
54 80 49 11 -4 35 -8 51 -9 17 -1 65 -6 107 -10 l77 -8 30 32 30 32 33 -21
c46 -28 89 -26 119 6 17 18 31 24 49 21 14 -3 43 3 65 13 22 10 57 21 78 25
40 8 77 47 77 84 0 12 6 21 13 21 7 0 28 15 46 34 26 26 32 41 29 60 -4 22 0
29 28 42 44 21 100 11 135 -23 30 -27 81 -41 149 -39 42 1 45 3 50 31 3 17 12
40 20 52 13 20 20 22 70 16 47 -5 64 -13 121 -59 36 -30 73 -54 81 -54 9 0 21
-13 27 -30 6 -17 16 -45 23 -63 13 -33 70 -97 87 -97 6 0 18 -11 27 -25 9 -14
21 -25 26 -25 6 0 24 -12 41 -26 24 -20 37 -24 63 -19 32 6 35 4 55 -40 21
-45 70 -95 93 -95 20 0 36 23 36 52 0 18 5 28 15 28 9 0 18 7 21 15 4 8 17 15
30 15 13 0 29 9 36 20 9 14 24 20 46 20 19 0 45 9 59 20 36 28 88 36 108 16 9
-9 21 -14 25 -11 10 6 49 -13 65 -32 13 -17 106 -25 122 -11 17 14 17 37 -1
57 -7 9 -17 26 -20 39 -7 19 -4 22 24 22 18 0 33 6 36 15 8 19 40 4 71 -32 20
-25 26 -26 140 -28 139 -3 163 6 163 59 0 18 -6 39 -14 45 -8 7 -18 27 -21 44
-4 18 -18 46 -31 64 -13 17 -24 39 -24 48 0 8 -9 19 -19 23 -11 4 -34 30 -53
57 -20 30 -42 51 -55 53 -15 2 -29 18 -44 49 -12 25 -30 48 -40 50 -10 3 -21
14 -24 24 -4 11 -15 24 -26 29 -10 6 -19 16 -19 23 0 15 -108 122 -132 130
-11 4 -18 17 -18 31 0 18 -8 27 -30 35 -34 11 -36 16 -15 38 14 14 14 17 1 32
-14 15 -13 20 14 49 16 18 34 32 39 32 15 0 14 23 -1 38 -7 7 -12 24 -13 38 0
35 -33 48 -70 28 -15 -8 -29 -13 -30 -12 -36 58 -44 80 -33 98 9 14 9 22 0 33
-10 11 -9 17 3 27 27 23 10 75 -20 63 -8 -3 -15 5 -17 19 -4 32 -33 34 -63 3
-30 -29 -48 -25 -39 11 11 43 -3 71 -38 78 -17 3 -36 2 -42 -4 -17 -17 -44
-11 -51 10 -8 26 -45 26 -52 1 -4 -16 -11 -18 -38 -14 -27 4 -36 1 -47 -16
-18 -30 -36 -26 -75 15 -27 29 -36 34 -48 24 -8 -6 -19 -9 -25 -5 -15 9 7 46
24 39 20 -8 43 32 51 89 8 60 65 131 86 110 16 -16 51 -17 65 -3 19 19 106 21
126 4 22 -21 52 -14 56 12 2 12 -6 37 -17 55 -40 65 -18 172 32 153 9 -3 24 3
37 16 13 13 28 19 40 15 13 -4 24 3 39 24 25 35 26 47 6 55 -19 7 -17 72 2 88
9 7 37 7 95 -1 46 -6 121 -12 166 -14 80 -4 84 -3 95 20 7 17 7 38 -2 79 -10
42 -10 62 -1 83 8 20 8 39 0 72 -33 127 -34 145 -13 173 17 21 20 37 17 93 -3
38 -4 77 -3 88 4 47 1 114 -9 160 -19 87 -15 179 8 208 12 15 26 52 31 84 6
32 20 81 32 108 11 28 22 75 25 106 l4 57 -44 7 -43 8 38 32 c36 31 73 45 123
45 24 0 64 46 64 73 0 8 6 20 13 26 13 10 37 74 43 116 1 11 19 65 38 119 20
55 36 101 36 103 0 2 26 20 58 40 31 20 58 40 60 44 2 4 17 0 34 -9 27 -13 40
-13 96 -2 35 7 78 20 96 29 67 35 210 14 274 -41 18 -15 43 -28 56 -28 13 0
35 -9 49 -20 34 -27 45 -25 53 7 9 36 55 101 76 108 41 14 69 53 127 169 78
159 83 203 31 286 -30 48 -34 63 -36 130 -1 41 -6 100 -12 130 -8 43 -7 60 4
76 14 24 9 89 -9 112 -8 11 -44 13 -156 10 -98 -2 -156 1 -176 9 -45 18 -202
43 -272 43 -56 0 -87 8 -173 42 -32 13 -52 23 -236 119 l-151 79 -18 83 c-10
45 -24 89 -32 98 -7 9 -18 40 -23 70 -5 30 -14 71 -20 91 -11 40 -55 98 -72
98 -6 0 -41 -24 -77 -53 -82 -65 -108 -77 -173 -77 -28 0 -68 -5 -89 -11 -57
-18 -61 -12 -124 164 -13 38 -25 52 -52 65 l-35 17 -35 -40 -35 -40 -176 0
c-97 0 -191 -4 -209 -8 -30 -8 -33 -6 -59 40 -39 68 -52 81 -88 89 -17 3 -43
12 -57 20 -29 14 -55 65 -45 89 8 21 -10 64 -30 72 -9 3 -29 -4 -46 -17 -29
-22 -34 -22 -100 -10 -45 8 -76 19 -88 33 -17 18 -27 19 -100 14 -65 -5 -86
-3 -106 9 -16 11 -34 14 -56 10 -18 -4 -73 -11 -122 -17 -53 -5 -96 -15 -106
-24 -9 -8 -28 -15 -42 -15 -31 0 -193 -74 -231 -106 -16 -13 -35 -24 -43 -24
-8 0 -40 -9 -71 -20 -32 -11 -78 -20 -104 -20 -26 0 -66 -7 -90 -16 -26 -9
-94 -17 -163 -20 -88 -4 -126 -10 -145 -22 -16 -11 -47 -17 -86 -18 -33 0 -96
-4 -140 -9 -69 -7 -83 -12 -105 -35 -15 -17 -45 -33 -75 -41 -27 -7 -63 -21
-80 -30 -16 -9 -56 -20 -87 -24 -86 -10 -184 -84 -235 -176 -20 -37 -37 -52
-80 -74 -73 -35 -163 -93 -163 -104 0 -5 -15 -27 -34 -50 -18 -22 -37 -56 -40
-75 -5 -27 -17 -43 -49 -65 -23 -16 -53 -41 -67 -56 -14 -15 -46 -38 -71 -50
-34 -18 -48 -31 -52 -52 -6 -31 -31 -48 -157 -108 -60 -29 -82 -35 -111 -30
-41 7 -94 -11 -145 -50 -26 -20 -45 -25 -88 -25 -51 0 -58 -3 -92 -39 -35 -39
-37 -39 -60 -24 -23 15 -39 15 -114 -1 -31 -7 -120 20 -140 43 -47 53 -131 67
-207 36 -19 -8 -58 -15 -86 -15 -63 0 -125 38 -134 82 -8 39 -23 48 -87 55
-44 5 -59 11 -71 29 -8 13 -25 24 -36 24 -11 0 -30 6 -42 14 -28 19 -140 18
-226 -1 -56 -12 -65 -12 -80 2 -29 25 -81 18 -141 -20 -87 -56 -111 -50 -225
53 -33 30 -91 70 -130 89 -60 30 -79 35 -145 36 -63 1 -83 -2 -126 -25 -28
-15 -65 -39 -83 -53 -17 -15 -54 -33 -82 -40 -28 -8 -59 -21 -69 -30 -14 -12
-29 -15 -68 -9 -28 3 -72 1 -99 -5 -26 -6 -81 -15 -122 -19 -70 -8 -77 -7
-127 20 -30 15 -67 28 -83 28 -44 0 -112 28 -146 59 -16 15 -46 34 -65 41 -19
7 -39 17 -44 22 -6 4 -25 8 -44 8 -54 0 -165 22 -182 36 -23 19 -109 54 -134
54 -12 0 -31 6 -42 14 -11 8 -55 28 -99 45 -79 30 -81 30 -142 16 -58 -14 -65
-13 -105 5 -24 11 -51 20 -62 20 -10 0 -34 14 -53 30 -19 17 -75 51 -125 76
l-91 46 -67 -10 c-40 -6 -86 -6 -120 -1 -93 16 -215 -9 -352 -72 -46 -20 -88
-31 -135 -35 -37 -2 -81 -9 -96 -16 -21 -8 -31 -8 -40 1 -6 6 -21 11 -33 11
-13 0 -26 5 -29 10 -3 6 -17 10 -30 10 -14 0 -39 14 -59 35 -26 26 -44 35 -69
35 -49 0 -123 50 -142 97 -15 35 -15 42 -1 87 9 26 16 56 16 66 0 10 16 42 35
71 19 30 35 61 35 71 0 26 36 54 88 68 154 40 181 52 217 96 28 34 35 51 35
86 0 68 -33 94 -137 107 -88 11 -121 27 -153 71 -11 15 -40 37 -64 49 -24 11
-47 25 -51 31 -3 5 -14 10 -24 10 -9 0 -42 28 -72 61 -55 62 -98 89 -144 89
-14 0 -33 9 -42 20 -10 11 -22 19 -28 19 -5 -1 -20 -4 -33 -6z"/>
</g>
</svg>
